<svg id="レイヤー_1" data-name="レイヤー 1" xmlns="http://www.w3.org/2000/svg" viewBox="0 0 38 38"><defs><style>.cls-1{fill:#fff;}</style></defs><title>名称未設定-1</title><path class="cls-1" d="M27.81,5.41a3.06,3.06,0,0,0,.83-1.55L27,4s-5-6.42-10.91-1.29c0,0-1-1.74-1.92-1.37,0,0,.55.73.09,1.28,0,0-8.16,1.1-5.41,7.61a2.69,2.69,0,0,0-1.47,2.48s-4,1.19-4.49,2.84H6.63l-.28.55H2.5a6.64,6.64,0,0,0,1.93,2.29l1.92-1.19a2.88,2.88,0,0,1-.92,1.74,3.64,3.64,0,0,1-2.1-.45l1,2.38.65-1A4.2,4.2,0,0,0,9.1,21,3.56,3.56,0,0,0,12,18.25a2.72,2.72,0,0,1-2.39,3.61,5.2,5.2,0,0,1-4.31-1.13l-1.1,1.1a.93.93,0,0,1,.46.55c.09.37-.18,3.21,1,3.3s4,0,4.12-2.11c0,0,3-.73,3.21-1.46s.28-1.38.28-1.38,3.85-.83,4.22-3.12c0,0,1,2.75-3.49,3.58,0,0,.83,1-1.65,2.38S7.82,26,7.18,27.24s-2,3.94,3.3,8c0,0-.64-2.29-.09-2.75,0,0,3.21,4.58,8.53,3.85,0,0-.92-1.56-.55-1.93,0,0,1.46,2.11,1.1,2.94a3.43,3.43,0,0,0,1.74-2.84c0-1.93.73-4,2.66-4.41s3.48-1.19,2.84,1.38c0,0,4.13-2.48,4.49-4.5s1.65-1.55,1.47.37c0,0,3.39-4.67,2.39-12.56S27.81,5.41,27.81,5.41Z"/></svg>